<svg width="32" height="32" viewBox="0 0 32 32" fill="none" xmlns="http://www.w3.org/2000/svg">
<path d="M9.19996 27.4666C11.2 28.6666 13.6 29.3333 16 29.3333C23.3333 29.3333 29.3333 23.3333 29.3333 16C29.3333 8.66663 23.3333 2.66663 16 2.66663C8.66663 2.66663 2.66663 8.66663 2.66663 16C2.66663 18.4 3.33329 20.6666 4.39996 22.6666L3.10707 27.6393C2.91235 28.3882 3.60555 29.065 4.34961 28.8524L9.19996 27.4666Z" stroke="white" stroke-width="1.5" stroke-miterlimit="10" stroke-linecap="round" stroke-linejoin="round"/>
<path d="M22 19.798C22 20.014 21.9519 20.236 21.8498 20.452C21.7476 20.668 21.6154 20.872 21.4412 21.064C21.1467 21.388 20.8222 21.622 20.4557 21.772C20.0951 21.922 19.7046 22 19.2839 22C18.671 22 18.016 21.856 17.325 21.562C16.634 21.268 15.9429 20.872 15.2579 20.374C14.5669 19.87 13.9119 19.312 13.2869 18.694C12.668 18.07 12.1092 17.416 11.6104 16.732C11.1177 16.048 10.7211 15.364 10.4326 14.686C10.1442 14.002 10 13.348 10 12.724C10 12.316 10.0721 11.926 10.2163 11.566C10.3605 11.2 10.5889 10.864 10.9074 10.564C11.2919 10.186 11.7126 10 12.1572 10C12.3255 10 12.4937 10.036 12.644 10.108C12.8002 10.18 12.9384 10.288 13.0466 10.444L14.4407 12.406C14.5488 12.556 14.6269 12.694 14.681 12.826C14.7351 12.952 14.7651 13.078 14.7651 13.192C14.7651 13.336 14.7231 13.48 14.639 13.618C14.5608 13.756 14.4467 13.9 14.3025 14.044L13.8458 14.518C13.7797 14.584 13.7496 14.662 13.7496 14.758C13.7496 14.806 13.7556 14.848 13.7677 14.896C13.7857 14.944 13.8037 14.98 13.8157 15.016C13.9239 15.214 14.1102 15.472 14.3746 15.784C14.645 16.096 14.9334 16.414 15.2459 16.732C15.5704 17.05 15.8828 17.344 16.2013 17.614C16.5138 17.878 16.7722 18.058 16.9765 18.166C17.0065 18.178 17.0426 18.196 17.0846 18.214C17.1327 18.232 17.1808 18.238 17.2349 18.238C17.337 18.238 17.4151 18.202 17.4812 18.136L17.9379 17.686C18.0881 17.536 18.2323 17.422 18.3706 17.35C18.5088 17.266 18.647 17.224 18.7972 17.224C18.9114 17.224 19.0315 17.248 19.1637 17.302C19.2959 17.356 19.4342 17.434 19.5844 17.536L21.5734 18.946C21.7296 19.054 21.8378 19.18 21.9039 19.33C21.9639 19.48 22 19.63 22 19.798Z" stroke="white" stroke-width="1.5" stroke-miterlimit="10"/>
</svg>
