<svg width="59" height="60" viewBox="0 0 59 60" fill="none" xmlns="http://www.w3.org/2000/svg">
<path d="M34 24.5C34 25.3281 34.6719 26 35.5 26C36.3281 26 37 25.3281 37 24.5C37 23.6719 36.3281 23 35.5 23C34.6719 23 34 23.6719 34 24.5Z" fill="white"/>
<path d="M35.5 34C34.6719 34 34 34.4479 34 35C34 35.5521 34.6719 36 35.5 36C36.3281 36 37 35.5521 37 35C37.0052 34.4479 36.3333 34 35.5 34Z" fill="white"/>
<path d="M29.5 0C13.2079 0 0 13.4318 0 30C0 46.5682 13.2079 60 29.5 60C45.7921 60 59 46.5682 59 30C59 13.4318 45.7921 0 29.5 0ZM13.3576 30.4077C13.6462 30.674 13.9028 31.0382 14.1273 31.4948C14.3518 31.9514 14.5389 32.5168 14.6885 33.1908C14.8382 33.8648 14.913 34.7074 14.913 35.7239V41.0944C14.913 45.8181 17.7727 45.2473 18.8097 45.2473C18.8097 45.2473 19.5633 45.2365 19.5633 46.0192C19.5633 46.802 18.8097 46.7748 18.8097 46.7748H17.0457C16.5219 46.7748 13.3362 46.6008 13.3362 41.4803V35.8C13.3309 35.2455 13.2934 34.6911 13.224 34.1421C13.1545 33.5713 13.0048 33.0114 12.775 32.4841C12.5665 31.9949 12.2511 31.5601 11.8556 31.2122C11.4654 30.8697 10.9736 30.6849 10.375 30.6577C9.47699 30.6197 9.37009 30.6577 9.37009 29.7934C9.37009 28.9292 10.375 28.902 10.375 28.902C10.9736 28.8748 11.4654 28.6954 11.8556 28.3475C12.2511 27.9942 12.5612 27.5593 12.775 27.0756C13.0048 26.5483 13.1598 25.9884 13.224 25.4176C13.2934 24.8686 13.3362 24.3142 13.3362 23.7597V17.2042C13.3362 12.9208 16.2654 12.7088 17.0457 12.7088H18.8097C18.8097 12.7088 19.5633 12.7523 19.5633 13.5351C19.5633 14.3178 18.8097 14.2743 18.8097 14.2743C16.538 14.2743 14.913 14.3504 14.913 18.3892V23.7978C14.913 24.8415 14.8382 25.6949 14.6885 26.3689C14.5389 27.0429 14.3518 27.6028 14.1273 28.0431C13.9028 28.4889 13.6462 28.8367 13.3576 29.0922C13.085 29.3368 12.791 29.5543 12.4756 29.7391C12.791 29.9293 13.085 30.1522 13.3576 30.4077ZM35.5187 38.0667C34.9628 38.0667 34.4122 37.909 33.9365 37.6155C32.1566 38.6103 29.8047 39.1158 27.7895 38.719C23.7593 37.9199 20.7179 34.4682 20.4346 30.3153C20.1566 26.195 22.7223 22.3682 26.5922 21.1288C29.0991 20.3243 31.9588 20.7755 33.9739 22.1073C35.4438 21.2647 37.2986 21.792 38.1271 23.2868C38.9556 24.7817 38.4371 26.6679 36.9672 27.5104C35.4973 28.353 33.6425 27.8257 32.814 26.3309C32.3169 25.4285 32.2902 24.3305 32.7499 23.4118C29.9597 21.6941 26.2608 22.2377 24.0105 24.8034C21.3914 27.7876 21.6052 32.3917 24.4969 35.1803C26.7259 37.3328 30.1468 37.6916 32.7552 36.2729C32.0496 34.7237 32.7124 32.881 34.2412 32.1634C35.7645 31.4459 37.5766 32.1199 38.2821 33.6746C38.9877 35.2238 38.3249 37.0665 36.7962 37.784C36.4006 37.9688 35.9623 38.0667 35.5187 38.0667ZM49.352 30.6577C48.7533 30.6849 48.2615 30.8697 47.8713 31.2122C47.4758 31.5655 47.1658 32.0004 46.952 32.4841C46.7221 33.0114 46.5671 33.5713 46.503 34.1421C46.4335 34.6911 46.3961 35.2455 46.3907 35.8V41.4803C46.3907 46.6008 43.205 46.7748 42.6812 46.7748H40.9226C40.9226 46.7748 40.169 46.8074 40.169 46.0246C40.169 45.2419 40.9226 45.2528 40.9226 45.2528C41.9596 45.2528 44.8193 45.8235 44.8193 41.0998V35.7293C44.8193 34.7128 44.8941 33.8703 45.0438 33.1962C45.1934 32.5222 45.3805 31.9569 45.605 31.5003C45.8295 31.0437 46.0861 30.6795 46.3747 30.4131C46.642 30.1576 46.9413 29.9348 47.2567 29.7445C46.9413 29.5597 46.6473 29.3423 46.3747 29.0977C46.0861 28.8422 45.8295 28.4943 45.605 28.0486C45.3805 27.6028 45.1934 27.0429 45.0438 26.3743C44.8941 25.7003 44.8193 24.8415 44.8193 23.8032V18.3946C44.8193 14.3559 43.1943 14.2798 40.9226 14.2798C40.9226 14.2798 40.169 14.3232 40.169 13.5405C40.169 12.7577 40.9226 12.7143 40.9226 12.7143H42.6812C43.4616 12.7143 46.3907 12.9263 46.3907 17.2096V23.7652C46.3961 24.3196 46.4335 24.8741 46.503 25.4231C46.5725 25.9938 46.7221 26.5537 46.952 27.081C47.1604 27.5702 47.4758 28.0051 47.8713 28.353C48.2615 28.6954 48.7533 28.8802 49.352 28.9074C50.25 28.9455 50.3569 28.9346 50.3569 29.7989C50.3569 30.6632 49.352 30.6577 49.352 30.6577Z" fill="white"/>
</svg>
