<svg width="70" height="82" viewBox="0 0 70 82" fill="none" xmlns="http://www.w3.org/2000/svg">
<path d="M57.9883 43.3145C57.9492 36.6543 60.9668 31.6348 67.0605 27.9336C63.6523 23.0508 58.4961 20.3652 51.6992 19.8477C45.2637 19.3398 38.2227 23.5977 35.6445 23.5977C32.9199 23.5977 26.6895 20.0234 21.7871 20.0234C11.6699 20.1797 0.917969 28.0898 0.917969 44.1836C0.917969 48.9394 1.78711 53.8516 3.52539 58.9102C5.84961 65.5703 14.2285 81.8887 22.9687 81.625C27.5391 81.5176 30.7715 78.3828 36.7187 78.3828C42.4902 78.3828 45.4785 81.625 50.5762 81.625C59.3945 81.498 66.9727 66.6641 69.1797 59.9844C57.3535 54.4082 57.9883 43.6562 57.9883 43.3145ZM47.7246 13.5293C52.6758 7.65039 52.2266 2.29883 52.0801 0.375C47.7051 0.628906 42.6465 3.35352 39.7656 6.70313C36.5918 10.2969 34.7266 14.7402 35.127 19.75C39.8535 20.1113 44.1699 17.6797 47.7246 13.5293Z" fill="url(#paint0_linear_111_12)"/>
<defs>
<linearGradient id="paint0_linear_111_12" x1="4.95864" y1="74.3594" x2="78.5203" y2="16.7923" gradientUnits="userSpaceOnUse">
<stop stop-color="#438181"/>
<stop offset="1" stop-color="#326060"/>
</linearGradient>
</defs>
</svg>
