<svg width="82" height="84" viewBox="0 0 82 84" fill="none" xmlns="http://www.w3.org/2000/svg">
<path d="M80.4 34.3084C80.9125 37.0542 81.1916 39.9251 81.1916 42.9209C81.1916 66.3542 65.5083 83.0167 41.8208 83.0167C36.434 83.0184 31.0996 81.9586 26.1225 79.8979C21.1453 77.8372 16.6231 74.816 12.814 71.0069C9.0049 67.1978 5.9837 62.6755 3.923 57.6984C1.8623 52.7213 0.802498 47.3869 0.80414 42.0001C0.802498 36.6132 1.8623 31.2788 3.923 26.3017C5.9837 21.3246 9.0049 16.8023 12.814 12.9932C16.6231 9.18416 21.1453 6.16296 26.1225 4.10226C31.0996 2.04156 36.434 0.981758 41.8208 0.9834C52.8958 0.9834 62.15 5.0584 69.25 11.6751L57.6875 23.2376V23.2084C53.3833 19.1084 47.9208 17.0042 41.8208 17.0042C28.2875 17.0042 17.2875 28.4376 17.2875 41.9751C17.2875 55.5084 28.2875 66.9667 41.8208 66.9667C54.1 66.9667 62.4583 59.9459 64.175 50.3042H41.8208V34.3084H80.4041H80.4Z" fill="url(#paint0_linear_111_10)"/>
<defs>
<linearGradient id="paint0_linear_111_10" x1="5.56259" y1="75.6781" x2="81.7566" y2="6.12686" gradientUnits="userSpaceOnUse">
<stop stop-color="#438181"/>
<stop offset="1" stop-color="#326060"/>
</linearGradient>
</defs>
</svg>
