<svg width="100" height="36" viewBox="0 0 100 36" fill="none" xmlns="http://www.w3.org/2000/svg">
<path d="M99.9999 0.5L26.8416 31.65C20.775 34.2167 15.6791 35.5042 11.5583 35.5042C6.89162 35.5042 3.50412 33.8708 1.40412 30.6C0.0832901 28.5 -0.30421 25.8375 0.237457 22.6083C0.779123 19.3792 2.22079 15.9417 4.55412 12.2833C6.49996 9.325 9.68746 5.4375 14.125 0.616666C12.6198 2.98611 11.5161 5.58774 10.8583 8.31666C9.69162 13.2958 10.7416 16.95 14.0083 19.2833C15.5625 20.3708 17.7 20.9167 20.425 20.9167C22.6 20.9167 25.05 20.5667 27.775 19.8667L99.9999 0.5Z" fill="url(#paint0_linear_111_16)"/>
<defs>
<linearGradient id="paint0_linear_111_16" x1="5.92007" y1="32.3727" x2="27.4209" y2="-24.8433" gradientUnits="userSpaceOnUse">
<stop stop-color="#438181"/>
<stop offset="1" stop-color="#326060"/>
</linearGradient>
</defs>
</svg>
