<svg width="100" height="78" viewBox="0 0 100 78" fill="none" xmlns="http://www.w3.org/2000/svg">
<path d="M99.1125 59.5688C97.1562 62.0375 92.3687 63.7937 92.3687 63.7937L56.7687 76.5813V67.15L82.9687 57.8187C85.9437 56.7562 86.4 55.2438 83.9812 54.4563C81.5687 53.6625 77.2 53.8938 74.2312 54.9563L56.7687 61.1062V51.3187L57.775 50.9812C57.775 50.9812 62.8187 49.1937 69.9125 48.4062C77.0062 47.625 85.6937 48.5125 92.5125 51.0938C100.2 53.5313 101.062 57.1063 99.1125 59.5688V59.5688ZM60.1562 43.5188V19.3937C60.1562 16.5625 59.6375 13.9562 56.9812 13.2187C54.9437 12.5625 53.6812 14.4562 53.6812 17.2812V77.6812L37.3937 72.5125V0.5C44.3187 1.7875 54.4062 4.825 59.8312 6.65625C73.625 11.3875 78.3 17.2812 78.3 30.5625C78.3 43.5063 70.3125 48.4125 60.1562 43.5125V43.5188ZM7.50622 66.175C-0.381275 63.9375 -1.69378 59.3125 1.89997 56.65C5.22497 54.1875 10.875 52.3375 10.875 52.3375L34.2312 44.025V53.4938L17.4187 59.5125C14.4562 60.575 14 62.0812 16.4125 62.875C18.825 63.6625 23.1937 63.4375 26.1625 62.375L34.225 59.4437V67.9187L32.6187 68.1875C24.2076 69.5493 15.5918 68.8567 7.50622 66.1687V66.175Z" fill="url(#paint0_linear_111_18)"/>
<defs>
<linearGradient id="paint0_linear_111_18" x1="5.92028" y1="70.7767" x2="76.6515" y2="-14.59" gradientUnits="userSpaceOnUse">
<stop stop-color="#438181"/>
<stop offset="1" stop-color="#326060"/>
</linearGradient>
</defs>
</svg>
