<svg width="100" height="100" viewBox="0 0 100 100" fill="none" xmlns="http://www.w3.org/2000/svg">
<path d="M73.3724 70.4427C73.3724 69.0538 72.7214 67.947 71.4193 67.1224C63.0425 62.1311 53.342 59.6354 42.3177 59.6354C36.5451 59.6354 30.3168 60.3733 23.6328 61.849C21.8099 62.2396 20.8984 63.3681 20.8984 65.2344C20.8984 66.1024 21.1914 66.8511 21.7773 67.4805C22.3633 68.1098 23.1337 68.4245 24.0885 68.4245C24.3056 68.4245 25.1085 68.2509 26.4974 67.9036C32.2266 66.7318 37.5 66.1458 42.3177 66.1458C52.1267 66.1458 60.7422 68.3811 68.1641 72.8516C68.9887 73.329 69.7049 73.5677 70.3125 73.5677C71.1372 73.5677 71.8533 73.2747 72.4609 72.6888C73.0686 72.1029 73.3724 71.3542 73.3724 70.4427ZM79.6224 56.4453C79.6224 54.7092 78.8628 53.3854 77.3438 52.474C67.0573 46.3542 55.1649 43.2943 41.6667 43.2943C35.026 43.2943 28.4505 44.2057 21.9401 46.0286C19.8568 46.5929 18.8151 47.9818 18.8151 50.1953C18.8151 51.2804 19.1949 52.2027 19.9544 52.9622C20.714 53.7218 21.6363 54.1016 22.7214 54.1016C23.0252 54.1016 23.8281 53.9279 25.1302 53.5807C30.4253 52.1484 35.8724 51.4323 41.4714 51.4323C53.5807 51.4323 64.171 54.1233 73.2422 59.5052C74.2839 60.0694 75.1085 60.3516 75.7161 60.3516C76.8012 60.3516 77.7235 59.9718 78.4831 59.2122C79.2426 58.4527 79.6224 57.5304 79.6224 56.4453ZM86.6536 40.2995C86.6536 38.2595 85.7856 36.7405 84.0495 35.7422C78.5807 32.5738 72.2222 30.1758 64.974 28.5482C57.7257 26.9206 50.2821 26.1068 42.6432 26.1068C33.7891 26.1068 25.8898 27.1267 18.9453 29.1667C17.947 29.4705 17.1115 30.0239 16.4388 30.8268C15.7661 31.6298 15.4297 32.6823 15.4297 33.9844C15.4297 35.3299 15.8746 36.4583 16.7643 37.3698C17.6541 38.2812 18.7717 38.737 20.1172 38.737C20.5946 38.737 21.4627 38.5634 22.7214 38.2161C28.4939 36.6102 35.1562 35.8073 42.7083 35.8073C49.6094 35.8073 56.326 36.5451 62.8581 38.0208C69.3902 39.4965 74.8915 41.5582 79.362 44.2057C80.2734 44.7266 81.1415 44.987 81.9661 44.987C83.2248 44.987 84.3207 44.5421 85.2539 43.6523C86.1871 42.7626 86.6536 41.645 86.6536 40.2995ZM100 50C100 59.0712 97.7648 67.4371 93.2943 75.0977C88.8238 82.7582 82.7582 88.8238 75.0977 93.2943C67.4371 97.7648 59.0712 100 50 100C40.9288 100 32.5629 97.7648 24.9023 93.2943C17.2418 88.8238 11.1762 82.7582 6.70573 75.0977C2.23524 67.4371 0 59.0712 0 50C0 40.9288 2.23524 32.5629 6.70573 24.9023C11.1762 17.2418 17.2418 11.1762 24.9023 6.70573C32.5629 2.23524 40.9288 0 50 0C59.0712 0 67.4371 2.23524 75.0977 6.70573C82.7582 11.1762 88.8238 17.2418 93.2943 24.9023C97.7648 32.5629 100 40.9288 100 50Z" fill="url(#paint0_linear_111_14)"/>
<defs>
<linearGradient id="paint0_linear_111_14" x1="5.91939" y1="91.0541" x2="98.9536" y2="4.39213" gradientUnits="userSpaceOnUse">
<stop stop-color="#438181"/>
<stop offset="1" stop-color="#326060"/>
</linearGradient>
</defs>
</svg>
