<svg width="79" height="70" viewBox="0 0 79 70" fill="none" xmlns="http://www.w3.org/2000/svg">
<g clip-path="url(#clip0_140_43)">
<path d="M64.6229 22.6653C63.7864 22.3783 62.9429 22.1124 62.0931 21.8679C62.2358 21.2846 62.3672 20.7083 62.4839 20.1422C64.3991 10.8454 63.1471 3.35571 58.8706 0.889744C54.7704 -1.47429 48.0648 0.990753 41.2926 6.88457C40.6252 7.46647 39.9726 8.06514 39.3354 8.68001C38.9088 8.27114 38.4747 7.87021 38.0333 7.47742C30.9357 1.17558 23.8215 -1.48043 19.5496 0.992595C15.4531 3.364 14.2401 10.4048 15.9643 19.2156C16.1358 20.0882 16.3295 20.9564 16.5452 21.8191C15.5382 22.1053 14.5664 22.4098 13.6365 22.734C5.31508 25.6354 0.000915527 30.182 0.000915527 34.8981C0.000915527 39.7689 5.70592 44.6545 14.373 47.6169C15.0757 47.8561 15.7842 48.0777 16.4979 48.2816C16.2661 49.2108 16.0603 50.1464 15.8808 51.0871C14.237 59.745 15.5207 66.6194 19.6061 68.9758C23.8258 71.4092 30.9081 68.9083 37.804 62.88C38.3632 62.3899 38.91 61.8859 39.4441 61.3685C40.1341 62.0343 40.8426 62.6807 41.5686 63.307C48.2487 69.055 54.8459 71.3761 58.9274 69.0133C63.1431 66.5728 64.5133 59.1878 62.7344 50.2029C62.5943 49.499 62.4371 48.7986 62.2631 48.1023C62.7605 47.9549 63.2487 47.8033 63.7246 47.6454C72.7349 44.6603 78.5974 39.834 78.5974 34.8981C78.5974 30.1648 73.1116 25.5875 64.6229 22.6653ZM62.6687 44.4586C62.2389 44.6008 61.798 44.738 61.3485 44.8715C60.3538 41.7225 59.0115 38.3741 57.3687 34.9143C58.9363 31.5372 60.227 28.2315 61.1938 25.103C61.9979 25.3357 62.778 25.581 63.5302 25.8398C70.8035 28.3439 75.2399 32.0456 75.2399 34.8981C75.2399 37.9363 70.4485 41.8806 62.6687 44.4586ZM59.4407 50.855C60.2273 54.8278 60.3394 58.4199 59.8184 61.2282C59.3505 63.7516 58.4092 65.4337 57.2449 66.1076C54.7682 67.5414 49.4713 65.6778 43.7586 60.7619C43.0833 60.1795 42.4242 59.5786 41.7823 58.9597C43.9971 56.5376 46.2104 53.7219 48.3706 50.5947C52.1703 50.2576 55.7599 49.7062 59.0152 48.9537C59.172 49.584 59.3139 50.218 59.4407 50.855ZM26.7962 65.8599C24.3763 66.7143 22.4488 66.7389 21.2837 66.0671C18.8045 64.6373 17.7739 59.1175 19.1797 51.7134C19.3468 50.8385 19.5381 49.9684 19.7535 49.1041C22.9729 49.8164 26.5364 50.3285 30.345 50.6373C32.5199 53.6974 34.7971 56.51 37.092 58.9729C36.6043 59.4448 36.105 59.9046 35.5947 60.352C32.5451 63.0175 29.4893 64.9087 26.7962 65.8599ZM15.4592 44.4399C11.6267 43.1298 8.46171 41.4274 6.29232 39.5697C4.34276 37.9004 3.35877 36.2428 3.35877 34.8981C3.35877 32.0361 7.62539 28.3856 14.7417 25.9046C15.6054 25.6037 16.5092 25.3197 17.4472 25.0533C18.4309 28.2524 19.721 31.5973 21.2778 34.9797C19.7007 38.4122 18.3922 41.8106 17.399 45.0475C16.7475 44.8609 16.1008 44.6583 15.4592 44.4399ZM19.2595 18.5706C17.7824 11.0219 18.7634 5.32768 21.2321 3.89852C23.8614 2.37632 29.6757 4.54663 35.8041 9.98821C36.2037 10.3439 36.5968 10.7067 36.9833 11.0766C34.6997 13.5287 32.4435 16.3204 30.2879 19.3624C26.5914 19.705 23.053 20.2552 19.7999 20.9923C19.5994 20.1898 19.4193 19.3824 19.2595 18.5709V18.5706ZM53.1625 26.9423C52.3941 25.6151 51.5972 24.3045 50.7724 23.0116C53.2801 23.3287 55.6828 23.7497 57.9391 24.2642C57.2618 26.4354 56.4175 28.7052 55.4237 31.0324C54.6973 29.6541 53.9434 28.2905 53.1625 26.9423ZM39.3369 13.4762C40.8855 15.1541 42.4366 17.0272 43.9621 19.0597C40.8674 18.9135 37.7675 18.9129 34.6727 19.0578C36.1998 17.0441 37.7641 15.1734 39.3369 13.4762ZM25.4226 26.9654C24.6515 28.3027 23.9117 29.6578 23.2038 31.0297C22.2262 28.7108 21.3896 26.4305 20.7065 24.2286C22.9489 23.7269 25.3403 23.3168 27.8321 23.0054C26.998 24.3063 26.1946 25.6265 25.4226 26.9651V26.9654ZM27.9036 47.0296C25.3292 46.7422 22.902 46.3532 20.6601 45.8651C21.354 43.6238 22.209 41.2951 23.2078 38.9265C23.9185 40.2993 24.6613 41.6553 25.4358 42.9932C26.2322 44.3686 27.0568 45.7158 27.9036 47.0296ZM39.4296 56.5563C37.8381 54.8395 36.2508 52.94 34.7007 50.8971C36.2057 50.956 37.7398 50.9861 39.2992 50.9861C40.9012 50.9861 42.4848 50.9502 44.0435 50.8808C42.513 52.9605 40.9678 54.8628 39.4296 56.5563ZM55.4553 38.8055C56.506 41.2002 57.3914 43.5167 58.0945 45.7195C55.8158 46.2396 53.3553 46.6584 50.7629 46.9694C51.5936 45.6525 52.3981 44.3191 53.1757 42.9702C53.9664 41.599 54.7265 40.2105 55.4553 38.8055ZM50.2674 41.2926C49.0768 43.3608 47.8193 45.3897 46.4969 47.3762C44.1014 47.5459 41.7006 47.6301 39.2992 47.6289C36.8531 47.6289 34.4741 47.5527 32.1831 47.4041C30.8262 45.4223 29.5447 43.3898 28.3414 41.3111H28.3417C27.1441 39.2433 26.0254 37.1309 24.9882 34.9782C26.0228 32.8251 27.1381 30.7116 28.3316 28.6423L28.3313 28.6426C29.5243 26.5728 30.7956 24.549 32.1423 22.5756C34.4796 22.3988 36.8765 22.3067 39.2989 22.3067H39.2992C41.7326 22.3067 44.1325 22.3997 46.4692 22.5778C47.8023 24.5482 49.0655 26.565 50.2563 28.6245C51.4538 30.6892 52.5838 32.7924 53.6446 34.9306C52.5947 37.0907 51.4683 39.2127 50.2674 41.2926ZM57.1937 3.79843C59.8254 5.31632 60.849 11.4373 59.1954 19.4643C59.0898 19.9764 58.9713 20.498 58.8424 21.027C55.5812 20.2742 52.0404 19.7145 48.3332 19.3667C46.1736 16.2913 43.9357 13.4953 41.6893 11.0747C42.278 10.5072 42.8808 9.95442 43.497 9.41685C49.2996 4.36733 54.7228 2.37356 57.1937 3.79843ZM39.2992 27.8797C43.1753 27.8797 46.3176 31.022 46.3176 34.8981C46.3176 38.7742 43.1753 41.9165 39.2992 41.9165C35.4231 41.9165 32.2807 38.7742 32.2807 34.8981C32.2807 31.022 35.4231 27.8797 39.2992 27.8797Z" fill="#00D8FF"/>
</g>
<defs>
<clipPath id="clip0_140_43">
<rect width="78.5983" height="70" fill="white"/>
</clipPath>
</defs>
</svg>
