<svg width="115" height="70" viewBox="0 0 115 70" fill="none" xmlns="http://www.w3.org/2000/svg">
<path d="M56.4291 69.798C56.0428 69.798 55.6821 69.6951 55.347 69.5147L51.9204 67.4794C51.405 67.1958 51.6627 67.0928 51.8174 67.0413C52.5129 66.8095 52.6418 66.7577 53.3632 66.3458C53.4405 66.294 53.5438 66.3199 53.6209 66.3714L56.249 67.9431C56.352 67.9946 56.4809 67.9946 56.558 67.9431L66.8384 61.9913C66.9414 61.9398 66.9931 61.8366 66.9931 61.7079V49.8302C66.9931 49.7011 66.9414 49.5984 66.8384 49.5467L56.558 43.6207C56.455 43.569 56.3261 43.569 56.249 43.6207L45.9686 49.5467C45.8656 49.5981 45.8139 49.727 45.8139 49.83V61.7077C45.8139 61.8109 45.8656 61.9396 45.9686 61.9913L48.7771 63.6144C50.2972 64.3873 51.2505 63.4856 51.2505 62.5838V50.8606C51.2505 50.7061 51.3793 50.5514 51.5597 50.5514H52.8736C53.0283 50.5514 53.1828 50.6802 53.1828 50.8606V62.5838C53.1828 64.6192 52.0749 65.8045 50.1425 65.8045C49.55 65.8045 49.0863 65.8045 47.7721 65.1602L45.0668 63.6144C44.3969 63.2281 43.9847 62.5065 43.9847 61.7336V49.8559C43.9847 49.083 44.3969 48.3613 45.0668 47.975L55.347 42.0232C55.9913 41.6625 56.8674 41.6625 57.5115 42.0232L67.7916 47.975C68.4616 48.3613 68.874 49.083 68.874 49.8559V61.7336C68.874 62.5065 68.4616 63.2281 67.7916 63.6144L57.5115 69.5662C57.1764 69.7209 56.7901 69.798 56.4294 69.798H56.4291ZM59.5983 61.6306C55.0895 61.6306 54.1619 59.5694 54.1619 57.8173C54.1619 57.6626 54.2908 57.5081 54.4711 57.5081H55.811C55.9654 57.5081 56.0943 57.6111 56.0943 57.7659C56.3005 59.1313 56.893 59.8012 59.6242 59.8012C61.7884 59.8012 62.7162 59.3117 62.7162 58.1522C62.7162 57.4823 62.4583 56.993 59.0831 56.6579C56.2746 56.3743 54.5226 55.7561 54.5226 53.5146C54.5226 51.4275 56.2749 50.1907 59.212 50.1907C62.5098 50.1907 64.1331 51.3245 64.3394 53.7977C64.3394 53.8753 64.3135 53.9524 64.262 54.0298C64.2103 54.0813 64.1331 54.1328 64.0558 54.1328H62.716C62.5871 54.1328 62.4583 54.0298 62.4326 53.9009C62.1234 52.484 61.3247 52.0201 59.212 52.0201C56.8416 52.0201 56.558 52.8447 56.558 53.4629C56.558 54.2101 56.8931 54.442 60.0879 54.8542C63.257 55.2666 64.7515 55.8591 64.7515 58.0748C64.7257 60.3423 62.8707 61.6306 59.5983 61.6306Z" fill="#539E43"/>
<path d="M24.5318 23.3435C24.5318 22.8798 24.2741 22.4415 23.8619 22.2097L12.9375 15.9231C12.7569 15.8198 12.5509 15.7683 12.3449 15.7425H12.2417C12.0357 15.7425 11.8295 15.8198 11.6492 15.9231L0.724714 22.2097C0.312294 22.4415 0.0548096 22.8796 0.0548096 23.3435L0.0806694 40.2454C0.0806694 40.4772 0.209523 40.7091 0.41551 40.8123C0.62172 40.9411 0.879204 40.9411 1.05978 40.8123L7.55261 37.1021C7.96481 36.8702 8.22252 36.4322 8.22252 35.9685V28.0585C8.22252 27.5948 8.48 27.1567 8.89242 26.9249L11.6492 25.3274C11.8554 25.1985 12.0872 25.1468 12.3191 25.1468C12.5509 25.1468 12.7828 25.1985 12.9633 25.3274L15.7201 26.9249C16.1325 27.1567 16.39 27.5945 16.39 28.0585V35.9685C16.39 36.4322 16.6477 36.8702 17.0599 37.1021L23.5527 40.8123C23.653 40.8754 23.7692 40.909 23.8877 40.909C24.0062 40.909 24.1223 40.8754 24.2226 40.8123C24.4289 40.7091 24.5577 40.4772 24.5577 40.2454L24.5318 23.3435ZM77.0414 0.0774124C76.8355 -0.0258041 76.5777 -0.0258041 76.3972 0.0774124C76.1912 0.206266 76.0623 0.412253 76.0623 0.6441V17.3917C76.0623 17.5462 75.9852 17.7007 75.8305 17.8039C75.676 17.881 75.5213 17.881 75.3668 17.8039L72.6357 16.2323C72.4354 16.1182 72.209 16.0583 71.9786 16.0583C71.7482 16.0583 71.5217 16.1182 71.3215 16.2323L60.397 22.5447C59.9848 22.7766 59.7271 23.2146 59.7271 23.6783V36.2774C59.7271 36.7411 59.9848 37.1794 60.397 37.4113L71.3215 43.7238C71.5217 43.8378 71.7482 43.8977 71.9786 43.8977C72.209 43.8977 72.4354 43.8378 72.6357 43.7238L83.5601 37.4113C83.9723 37.1794 84.23 36.7414 84.23 36.2774V4.86974C84.23 4.38018 83.9723 3.94235 83.5601 3.71028L77.0417 0.0774124H77.0414ZM76.0367 32.1294C76.0367 32.2582 75.9852 32.3612 75.882 32.4127L72.1461 34.5769C72.0939 34.6024 72.0366 34.6156 71.9786 34.6156C71.9205 34.6156 71.8632 34.6024 71.8111 34.5769L68.0752 32.4127C67.972 32.3612 67.9205 32.2324 67.9205 32.1294V27.8008C67.9205 27.6719 67.972 27.5689 68.0752 27.5174L71.8111 25.353C71.8632 25.3275 71.9205 25.3143 71.9786 25.3143C72.0366 25.3143 72.0939 25.3275 72.1461 25.353L75.882 27.5174C75.9852 27.5687 76.0367 27.6978 76.0367 27.8008V32.1294ZM113.396 27.6978C113.809 27.4659 114.04 27.0279 114.04 26.5639V23.498C114.04 23.0343 113.783 22.5962 113.396 22.3644L102.549 16.0778C102.349 15.9638 102.122 15.9038 101.892 15.9038C101.662 15.9038 101.435 15.9638 101.235 16.0778L90.3105 22.39C89.898 22.6219 89.6405 23.0599 89.6405 23.5236V36.123C89.6405 36.5867 89.8983 37.0247 90.3105 37.2566L101.158 43.4402C101.57 43.672 102.06 43.672 102.446 43.4402L109.016 39.7819C109.222 39.6787 109.351 39.4468 109.351 39.215C109.351 38.9831 109.222 38.7513 109.016 38.6481L98.0401 32.3356C97.8339 32.2067 97.705 32.0008 97.705 31.7689V27.8268C97.705 27.595 97.8339 27.3631 98.0401 27.2599L101.467 25.3017C101.567 25.2386 101.683 25.2051 101.802 25.2051C101.92 25.2051 102.036 25.2386 102.137 25.3017L105.564 27.2599C105.77 27.3888 105.898 27.5948 105.898 27.8268V30.9187C105.898 31.1505 106.027 31.3823 106.233 31.4853C106.334 31.5485 106.45 31.582 106.568 31.582C106.687 31.582 106.803 31.5485 106.903 31.4853L113.396 27.6978Z" fill="#333333"/>
<path d="M101.724 27.1049C101.763 27.0797 101.808 27.0663 101.853 27.0663C101.899 27.0663 101.944 27.0797 101.982 27.1049L104.069 28.3159C104.146 28.3676 104.198 28.4448 104.198 28.5477V30.9699C104.198 31.0729 104.147 31.1502 104.069 31.2017L101.982 32.4127C101.944 32.4379 101.899 32.4513 101.853 32.4513C101.808 32.4513 101.763 32.4379 101.724 32.4127L99.6376 31.2017C99.5603 31.1502 99.5088 31.0729 99.5088 30.9699V28.548C99.5088 28.4448 99.5601 28.3674 99.6376 28.3161L101.724 27.1049Z" fill="#539E43"/>
<path d="M53.6724 22.39L42.7738 16.1292C42.6667 16.0751 42.5545 16.032 42.4387 16.0004L30.226 36.9219C30.3271 37.0454 30.4493 37.1501 30.5869 37.2311L41.4855 43.4921C41.7947 43.6724 42.1554 43.7239 42.4902 43.6207L53.956 22.6479C53.8786 22.5449 53.7754 22.4673 53.6724 22.3902V22.39Z" fill="url(#paint0_linear_140_24)"/>
<path fill-rule="evenodd" clip-rule="evenodd" d="M41.1248 13.8359L40.9703 13.9133H41.1763L41.1248 13.8359Z" fill="url(#paint1_linear_140_24)"/>
<path fill-rule="evenodd" clip-rule="evenodd" d="M53.6983 37.205C54.0075 37.0247 54.2393 36.7155 54.3425 36.3806L42.387 15.9745C42.0778 15.923 41.7428 15.9486 41.4596 16.129L30.6382 22.3643L42.3097 43.6463C42.4794 43.6186 42.6443 43.5665 42.7992 43.4919L53.6981 37.2052L53.6983 37.205Z" fill="url(#paint2_linear_140_24)"/>
<path fill-rule="evenodd" clip-rule="evenodd" d="M54.7032 36.999L54.6259 36.8701V37.0505L54.703 36.999H54.7032Z" fill="url(#paint3_linear_140_24)"/>
<path fill-rule="evenodd" clip-rule="evenodd" d="M53.6982 37.205L42.8252 43.466C42.6718 43.5442 42.5063 43.5965 42.3357 43.6205L42.5419 44.007L54.6 37.0249V36.8702L54.2908 36.3547C54.2393 36.7154 54.0074 37.0246 53.6982 37.205Z" fill="url(#paint4_linear_140_24)"/>
<path fill-rule="evenodd" clip-rule="evenodd" d="M53.6982 37.205L42.8252 43.466C42.6718 43.5442 42.5063 43.5965 42.3357 43.6205L42.5419 44.007L54.6 37.0249V36.8702L54.2908 36.3547C54.2393 36.7154 54.0074 37.0246 53.6982 37.205Z" fill="url(#paint5_linear_140_24)"/>
<defs>
<linearGradient id="paint0_linear_140_24" x1="40.4956" y1="31.2673" x2="70.2722" y2="15.0895" gradientUnits="userSpaceOnUse">
<stop offset="0.1376" stop-color="#41873F"/>
<stop offset="0.4032" stop-color="#54A044"/>
<stop offset="0.7136" stop-color="#66B848"/>
<stop offset="0.9081" stop-color="#6CC04A"/>
</linearGradient>
<linearGradient id="paint1_linear_140_24" x1="31.8786" y1="13.8463" x2="51.9451" y2="13.8463" gradientUnits="userSpaceOnUse">
<stop offset="0.09192" stop-color="#6CC04A"/>
<stop offset="0.2864" stop-color="#66B848"/>
<stop offset="0.5968" stop-color="#54A044"/>
<stop offset="0.8624" stop-color="#41873F"/>
</linearGradient>
<linearGradient id="paint2_linear_140_24" x1="29.5978" y1="29.7979" x2="54.6979" y2="29.7979" gradientUnits="userSpaceOnUse">
<stop offset="0.09192" stop-color="#6CC04A"/>
<stop offset="0.2864" stop-color="#66B848"/>
<stop offset="0.5968" stop-color="#54A044"/>
<stop offset="0.8624" stop-color="#41873F"/>
</linearGradient>
<linearGradient id="paint3_linear_140_24" x1="47.1118" y1="36.9354" x2="54.6475" y2="36.9354" gradientUnits="userSpaceOnUse">
<stop offset="0.09192" stop-color="#6CC04A"/>
<stop offset="0.2864" stop-color="#66B848"/>
<stop offset="0.5968" stop-color="#54A044"/>
<stop offset="0.8624" stop-color="#41873F"/>
</linearGradient>
<linearGradient id="paint4_linear_140_24" x1="29.5979" y1="40.2019" x2="54.6977" y2="40.2019" gradientUnits="userSpaceOnUse">
<stop offset="0.09192" stop-color="#6CC04A"/>
<stop offset="0.2864" stop-color="#66B848"/>
<stop offset="0.5968" stop-color="#54A044"/>
<stop offset="0.8624" stop-color="#41873F"/>
</linearGradient>
<linearGradient id="paint5_linear_140_24" x1="58.3544" y1="20.2031" x2="51.9957" y2="53.5228" gradientUnits="userSpaceOnUse">
<stop stop-color="#41873F"/>
<stop offset="0.3288" stop-color="#418B3D"/>
<stop offset="0.6352" stop-color="#419637"/>
<stop offset="0.9319" stop-color="#3FA92D"/>
<stop offset="1" stop-color="#3FAE2A"/>
</linearGradient>
</defs>
</svg>
