<svg width="60" height="83" viewBox="0 0 60 83" fill="none" xmlns="http://www.w3.org/2000/svg">
<g clip-path="url(#clip0_140_45)">
<path d="M0.00640869 66.5877L0.503881 65.8884L24.0311 21.0616L24.0807 20.587L13.7097 1.02538C12.8404 -0.613211 10.394 -0.198858 10.1091 1.63549L0.00640869 66.5877Z" fill="#FFC24A"/>
<path d="M31.6415 35.3836L39.3637 27.4424L31.6391 12.6353C30.9059 11.2337 28.8586 11.2295 28.1331 12.6353L24.006 20.5382V21.2111L31.6412 35.3836H31.6415Z" fill="#F4BD62"/>
<path d="M0.00640869 66.5877L0.231829 66.3599L1.05103 66.0258L31.1564 35.9082L31.5379 34.8656L24.0278 20.4952L0.00640869 66.5877Z" fill="#F6820C"/>
<path d="M32.6059 81.7767L59.8521 66.5185L52.0716 18.4021C51.8281 16.8967 49.9889 16.3016 48.9157 17.3809L0.00640869 66.5877L27.0963 81.7755C27.9383 82.2475 28.8866 82.4955 29.851 82.4957C30.8153 82.4959 31.7637 82.2484 32.6059 81.7767Z" fill="#FDE068"/>
<path d="M59.6079 66.3906L51.8864 18.6396C51.6451 17.1455 50.1154 16.5273 49.0504 17.5986L0.308655 66.4942L27.1012 81.5313C27.9368 81.9998 28.8778 82.2459 29.8348 82.2461C30.7919 82.2464 31.7331 82.0008 32.5689 81.5328L59.6081 66.3904L59.6079 66.3906Z" fill="#FCCA3F"/>
<path d="M32.6057 81.327C31.7635 81.7987 30.8151 82.0462 29.8508 82.046C28.8865 82.0458 27.9382 81.7979 27.0962 81.3259L0.224514 66.3564L0.0065918 66.5877L27.0962 81.7755C27.9382 82.2476 28.8865 82.4955 29.8509 82.4957C30.8153 82.4959 31.7637 82.2484 32.6059 81.7767L59.8521 66.5186L59.7853 66.1063L32.6059 81.3273L32.6057 81.327Z" fill="#EEAB37"/>
</g>
<defs>
<clipPath id="clip0_140_45">
<rect width="60" height="82.5882" fill="white"/>
</clipPath>
</defs>
</svg>
