<svg width="25" height="25" viewBox="0 0 25 25" fill="none" xmlns="http://www.w3.org/2000/svg">
<path d="M23.2823 8.35312L16.6469 1.71769C15.5471 0.617871 14.0554 0 12.5 0C10.9446 0 9.45294 0.617871 8.35312 1.71769L1.71769 8.35312C0.617871 9.45294 0 10.9446 0 12.5C0 14.0554 0.617871 15.5471 1.71769 16.6469L8.35312 23.2823C9.45294 24.3821 10.9446 25 12.5 25C14.0554 25 15.5471 24.3821 16.6469 23.2823L23.2823 16.6469C24.3821 15.5471 25 14.0554 25 12.5C25 10.9446 24.3821 9.45294 23.2823 8.35312ZM12.5 16.6177C11.9593 16.6177 11.4238 16.5112 10.9242 16.3043C10.4246 16.0973 9.9707 15.794 9.58834 15.4117C9.20597 15.0293 8.90266 14.5754 8.69573 14.0758C8.48879 13.5762 8.38229 13.0407 8.38229 12.5C8.38229 11.9593 8.48879 11.4238 8.69573 10.9242C8.90266 10.4246 9.20597 9.9707 9.58834 9.58834C9.9707 9.20597 10.4246 8.90266 10.9242 8.69573C11.4238 8.48879 11.9593 8.38229 12.5 8.38229C13.5921 8.38229 14.6394 8.81611 15.4117 9.58834C16.1839 10.3606 16.6177 11.4079 16.6177 12.5C16.6177 13.5921 16.1839 14.6394 15.4117 15.4117C14.6394 16.1839 13.5921 16.6177 12.5 16.6177Z" fill="url(#paint0_linear_140_7)"/>
<defs>
<linearGradient id="paint0_linear_140_7" x1="1.47985" y1="22.7635" x2="24.7384" y2="1.09803" gradientUnits="userSpaceOnUse">
<stop stop-color="#438181"/>
<stop offset="1" stop-color="#326060"/>
</linearGradient>
</defs>
</svg>
