<svg width="100" height="100" viewBox="0 0 100 100" fill="none" xmlns="http://www.w3.org/2000/svg">
<path d="M75 10.3125C67.6562 5.78125 59.2188 3.125 50 3.125V10.3125H75Z" fill="#ED4C5C"/>
<path d="M50 17.5H83.75C81.0938 14.8438 78.125 12.3438 75 10.3125H50V17.5Z" fill="white"/>
<path d="M50 24.6875H89.5312C87.8125 22.0312 85.9375 19.6875 83.9062 17.5H50V24.6875Z" fill="#ED4C5C"/>
<path d="M50 31.875H93.2812C92.1875 29.375 90.9375 26.875 89.5312 24.6875H50V31.875Z" fill="white"/>
<path d="M50 39.0625H95.625C95 36.5625 94.2188 34.2187 93.2812 31.875H50V39.0625Z" fill="#ED4C5C"/>
<path d="M50 46.4062H96.7188C96.5625 43.9062 96.0937 41.5625 95.625 39.2188H50V46.4062Z" fill="white"/>
<path d="M96.7188 46.4062H50V50H3.125C3.125 51.25 3.125 52.3437 3.28125 53.5938H96.7188C96.875 52.3437 96.875 51.25 96.875 50C96.875 48.75 96.875 47.5 96.7188 46.4062Z" fill="#ED4C5C"/>
<path d="M4.375 60.7813H95.625C96.25 58.4375 96.5625 56.0938 96.7188 53.5938H3.28125C3.4375 55.9375 3.75 58.4375 4.375 60.7813Z" fill="white"/>
<path d="M6.71875 67.9687H93.2812C94.2188 65.625 95 63.2812 95.625 60.7812H4.375C5 63.2812 5.78125 65.625 6.71875 67.9687Z" fill="#ED4C5C"/>
<path d="M10.4687 75.1562H89.5312C90.9375 72.8125 92.1875 70.4688 93.2812 67.9688H6.71875C7.8125 70.4688 9.0625 72.8125 10.4687 75.1562Z" fill="white"/>
<path d="M16.0938 82.3437H83.9062C85.9375 80.1563 87.9688 77.6562 89.5312 75.1562H10.4688C12.0312 77.8125 14.0625 80.1563 16.0938 82.3437Z" fill="#ED4C5C"/>
<path d="M24.8437 89.5312H75.1562C78.4375 87.5 81.25 85 83.9062 82.3438H16.0938C18.75 85.1563 21.7187 87.5 24.8437 89.5312Z" fill="white"/>
<path d="M50 96.875C59.2188 96.875 67.8125 94.2187 75.1562 89.5312H24.8438C32.1875 94.2187 40.7812 96.875 50 96.875Z" fill="#ED4C5C"/>
<path d="M25 10.3125C21.7188 12.3438 18.75 14.8438 16.0938 17.5C13.9062 19.6875 12.0312 22.1875 10.4687 24.6875C9.0625 27.0312 7.65625 29.375 6.71875 31.875C5.78125 34.2188 5 36.5625 4.375 39.0625C3.75 41.4062 3.4375 43.75 3.28125 46.25C3.125 47.5 3.125 48.75 3.125 50H50V3.125C40.7812 3.125 32.3438 5.78125 25 10.3125Z" fill="#428BC1"/>
<path d="M39.0625 4.6875L39.8438 7.03125H42.1875L40.3125 8.59375L40.9375 10.9375L39.0625 9.53125L37.1875 10.9375L37.8125 8.59375L35.9375 7.03125H38.2812L39.0625 4.6875ZM45.3125 14.0625L46.0938 16.4062H48.4375L46.5625 17.9688L47.1875 20.3125L45.3125 18.9063L43.4375 20.3125L44.0625 17.9688L42.1875 16.4062H44.5312L45.3125 14.0625ZM32.8125 14.0625L33.5938 16.4062H35.9375L34.0625 17.9688L34.6875 20.3125L32.8125 18.9063L30.9375 20.3125L31.5625 17.9688L29.6875 16.4062H32.0312L32.8125 14.0625ZM39.0625 23.4375L39.8438 25.7812H42.1875L40.3125 27.3438L40.9375 29.6875L39.0625 28.2812L37.1875 29.6875L37.8125 27.3438L35.9375 25.7812H38.2812L39.0625 23.4375ZM26.5625 23.4375L27.3438 25.7812H29.6875L27.8125 27.3438L28.4375 29.6875L26.5625 28.2812L24.6875 29.6875L25.3125 27.3438L23.4375 25.7812H25.7812L26.5625 23.4375ZM14.0625 23.4375L14.8438 25.7812H17.1875L15.3125 27.3438L15.9375 29.6875L14.0625 28.2812L12.1875 29.6875L12.8125 27.3438L10.9375 25.7812H13.2812L14.0625 23.4375ZM45.3125 32.8125L46.0938 35.1562H48.4375L46.5625 36.7188L47.1875 39.0625L45.3125 37.6562L43.4375 39.0625L44.0625 36.7188L42.1875 35.1562H44.5312L45.3125 32.8125ZM32.8125 32.8125L33.5938 35.1562H35.9375L34.0625 36.7188L34.6875 39.0625L32.8125 37.6562L30.9375 39.0625L31.5625 36.7188L29.6875 35.1562H32.0312L32.8125 32.8125ZM20.3125 32.8125L21.0938 35.1562H23.4375L21.5625 36.7188L22.1875 39.0625L20.3125 37.6562L18.4375 39.0625L19.0625 36.7188L17.1875 35.1562H19.5313L20.3125 32.8125ZM39.0625 42.1875L39.8438 44.5312H42.1875L40.3125 46.0938L40.9375 48.4375L39.0625 47.0312L37.1875 48.4375L37.8125 46.0938L35.9375 44.5312H38.2812L39.0625 42.1875ZM26.5625 42.1875L27.3438 44.5312H29.6875L27.8125 46.0938L28.4375 48.4375L26.5625 47.0312L24.6875 48.4375L25.3125 46.0938L23.4375 44.5312H25.7812L26.5625 42.1875ZM14.0625 42.1875L14.8438 44.5312H17.1875L15.3125 46.0938L15.9375 48.4375L14.0625 47.0312L12.1875 48.4375L12.8125 46.0938L10.9375 44.5312H13.2812L14.0625 42.1875ZM18.4375 20.3125L20.3125 18.9063L22.1875 20.3125L21.4062 17.9688L23.2812 16.4062H20.9375L20.3125 14.0625L19.5313 16.4062H17.3438L19.2187 17.8125L18.4375 20.3125ZM5.9375 39.0625L7.8125 37.6562L9.6875 39.0625L8.90625 36.7188L10.7812 35.1562H8.59375L7.8125 32.8125L7.03125 35.1562H5.46875C5.46875 35.3125 5.3125 35.4687 5.3125 35.625L6.5625 36.5625L5.9375 39.0625Z" fill="white"/>
</svg>
