<svg width="27" height="29" viewBox="0 0 27 29" fill="none" xmlns="http://www.w3.org/2000/svg">
<path d="M25.3433 23.0996C24.6985 21.5724 23.7628 20.1851 22.5884 19.0151C21.4175 17.8418 20.0305 16.9063 18.5039 16.2603C18.4902 16.2534 18.4766 16.25 18.4629 16.2432C20.5923 14.7051 21.9766 12.1997 21.9766 9.37305C21.9766 4.69043 18.1826 0.896484 13.5 0.896484C8.81738 0.896484 5.02343 4.69043 5.02343 9.37305C5.02343 12.1997 6.40771 14.7051 8.5371 16.2466C8.52343 16.2534 8.50976 16.2568 8.49609 16.2637C6.96484 16.9097 5.59081 17.8359 4.41162 19.0186C3.23826 20.1894 2.30274 21.5765 1.65673 23.103C1.02209 24.5975 0.679815 26.1999 0.648431 27.8232C0.647519 27.8597 0.653918 27.896 0.66725 27.93C0.680583 27.964 0.700579 27.9949 0.726062 28.021C0.751544 28.0471 0.781997 28.0679 0.815625 28.0821C0.849254 28.0962 0.885378 28.1035 0.921869 28.1035H2.97265C3.12304 28.1035 3.24267 27.9839 3.24609 27.8369C3.31445 25.1982 4.37402 22.7271 6.24706 20.854C8.18505 18.916 10.7588 17.8496 13.5 17.8496C16.2412 17.8496 18.8149 18.916 20.7529 20.854C22.626 22.7271 23.6855 25.1982 23.7539 27.8369C23.7573 27.9873 23.8769 28.1035 24.0273 28.1035H26.0781C26.1146 28.1035 26.1507 28.0962 26.1844 28.0821C26.218 28.0679 26.2484 28.0471 26.2739 28.021C26.2994 27.9949 26.3194 27.964 26.3327 27.93C26.3461 27.896 26.3525 27.8597 26.3516 27.8232C26.3174 26.1895 25.979 24.6001 25.3433 23.0996ZM13.5 15.252C11.9311 15.252 10.4546 14.6401 9.34374 13.5293C8.2329 12.4185 7.62109 10.9419 7.62109 9.37305C7.62109 7.8042 8.2329 6.32764 9.34374 5.2168C10.4546 4.10596 11.9311 3.49414 13.5 3.49414C15.0688 3.49414 16.5454 4.10596 17.6562 5.2168C18.7671 6.32764 19.3789 7.8042 19.3789 9.37305C19.3789 10.9419 18.7671 12.4185 17.6562 13.5293C16.5454 14.6401 15.0688 15.252 13.5 15.252Z" fill="white"/>
</svg>
