<svg width="35" height="35" viewBox="0 0 35 35" fill="none" xmlns="http://www.w3.org/2000/svg">
<path d="M30.5812 10.6021C30.7164 10.4672 30.8237 10.307 30.8969 10.1305C30.9701 9.95411 31.0077 9.76499 31.0077 9.574C31.0077 9.383 30.9701 9.19388 30.8969 9.01746C30.8237 8.84104 30.7164 8.68079 30.5812 8.54587L26.4542 4.41879C26.3193 4.2836 26.159 4.17634 25.9826 4.10316C25.8062 4.02998 25.617 3.99231 25.426 3.99231C25.235 3.99231 25.0459 4.02998 24.8695 4.10316C24.6931 4.17634 24.5328 4.2836 24.3979 4.41879L17.85 10.9667L12.1771 5.29379C11.0396 4.15629 9.1875 4.15629 8.05 5.29379L5.27917 8.06462C4.14167 9.20212 4.14167 11.0542 5.27917 12.1917L10.9521 17.8646L4.375 24.4417V30.625H10.5583L17.15 24.0334L22.8229 29.7063C24.2083 31.0917 26.075 30.5813 26.95 29.7063L29.7208 26.9355C30.8583 25.798 30.8583 23.9459 29.7208 22.8084L24.0479 17.1355L30.5812 10.6021ZM7.35 10.1209L10.1062 7.35004L11.9583 9.20212L10.2375 10.9375L12.2938 12.9938L14.0292 11.2584L15.7792 13.0084L13.0083 15.7792L7.35 10.1209ZM23.7271 20.9709L21.9917 22.7063L24.0479 24.7625L25.7833 23.0271L27.6354 24.8792L24.8646 27.65L19.1917 21.9771L21.9625 19.2063L23.7271 20.9709ZM9.34792 27.7084H7.29167V25.6521L21.3062 11.6375L23.2021 13.5334L23.3625 13.6938L9.34792 27.7084ZM23.3625 9.56671L25.4188 7.51046L27.475 9.56671L25.4188 11.623L23.3625 9.56671Z" fill="url(#paint0_linear_150_406)"/>
<defs>
<linearGradient id="paint0_linear_150_406" x1="5.95149" y1="28.2425" x2="30.729" y2="5.16205" gradientUnits="userSpaceOnUse">
<stop stop-color="#438181"/>
<stop offset="1" stop-color="#326060"/>
</linearGradient>
</defs>
</svg>
