<svg width="35" height="35" viewBox="0 0 35 35" fill="none" xmlns="http://www.w3.org/2000/svg">
<path d="M10.2083 7.29171H24.7917V8.75004C24.7917 9.55212 25.4479 10.2084 26.25 10.2084C27.0521 10.2084 27.7083 9.55212 27.7083 8.75004V4.37504C27.7083 2.77087 26.3958 1.47296 24.7917 1.47296L10.2083 1.45837C8.60417 1.45837 7.29167 2.77087 7.29167 4.37504V8.75004C7.29167 9.55212 7.94792 10.2084 8.75 10.2084C9.55209 10.2084 10.2083 9.55212 10.2083 8.75004V7.29171ZM23.5083 23.1584L28.1313 18.5355C28.2664 18.4005 28.3737 18.2403 28.4469 18.0639C28.5201 17.8874 28.5577 17.6983 28.5577 17.5073C28.5577 17.3163 28.5201 17.1272 28.4469 16.9508C28.3737 16.7744 28.2664 16.6141 28.1313 16.4792L23.5083 11.8563C22.9396 11.2875 22.0063 11.2875 21.4375 11.8563C21.3023 11.9912 21.1951 12.1515 21.1219 12.3279C21.0487 12.5043 21.011 12.6934 21.011 12.8844C21.011 13.0754 21.0487 13.2645 21.1219 13.441C21.1951 13.6174 21.3023 13.7776 21.4375 13.9125L25.0396 17.5L21.4375 21.1021C21.3023 21.237 21.1951 21.3973 21.1219 21.5737C21.0487 21.7501 21.011 21.9393 21.011 22.1303C21.011 22.3212 21.0487 22.5104 21.1219 22.6868C21.1951 22.8632 21.3023 23.0235 21.4375 23.1584C22.0063 23.7271 22.9396 23.7271 23.5083 23.1584ZM13.5479 21.0875L9.96042 17.5L13.5479 13.9125C13.6831 13.7776 13.7904 13.6174 13.8636 13.441C13.9367 13.2645 13.9744 13.0754 13.9744 12.8844C13.9744 12.6934 13.9367 12.5043 13.8636 12.3279C13.7904 12.1515 13.6831 11.9912 13.5479 11.8563C12.9792 11.2875 12.0458 11.2875 11.4771 11.8563L6.85417 16.4792C6.71898 16.6141 6.61172 16.7744 6.53854 16.9508C6.46536 17.1272 6.42769 17.3163 6.42769 17.5073C6.42769 17.6983 6.46536 17.8874 6.53854 18.0639C6.61172 18.2403 6.71898 18.4005 6.85417 18.5355L11.4771 23.1584C12.0458 23.7271 12.9792 23.7271 13.5479 23.1584C14.1313 22.5896 14.1167 21.6563 13.5479 21.0875ZM24.7917 27.7084H10.2083V26.25C10.2083 25.448 9.55209 24.7917 8.75 24.7917C7.94792 24.7917 7.29167 25.448 7.29167 26.25V30.625C7.29167 32.2292 8.60417 33.5417 10.2083 33.5417H24.7917C26.3958 33.5417 27.7083 32.2292 27.7083 30.625V26.25C27.7083 25.448 27.0521 24.7917 26.25 24.7917C25.4479 24.7917 24.7917 25.448 24.7917 26.25V27.7084Z" fill="url(#paint0_linear_150_408)"/>
<defs>
<linearGradient id="paint0_linear_150_408" x1="7.73765" y1="30.6716" x2="34.9547" y2="13.184" gradientUnits="userSpaceOnUse">
<stop stop-color="#438181"/>
<stop offset="1" stop-color="#326060"/>
</linearGradient>
</defs>
</svg>
