<svg width="80" height="80" viewBox="0 0 80 80" fill="none" xmlns="http://www.w3.org/2000/svg">
<g clip-path="url(#clip0_2_2068)">
<path d="M59.1484 50.9141L50 41.7656C48.1953 39.9609 45.5 39.6094 43.3281 40.6797L35 32.3516V27.5L25 20L20 25L27.5 35H32.3516L40.6797 43.3281C39.6172 45.5 39.9609 48.1953 41.7656 50L50.9141 59.1484C52.0547 60.2891 53.8984 60.2891 55.0312 59.1484L59.1484 55.0312C60.2812 53.8906 60.2812 52.0469 59.1484 50.9141ZM45.9141 37.5781C48.125 37.5781 50.2031 38.4375 51.7656 40L53.2812 41.5156C54.5156 40.9766 55.6875 40.2266 56.7031 39.2109C59.6016 36.3125 60.5859 32.2344 59.6641 28.5312C59.4922 27.8281 58.6094 27.5859 58.0938 28.1016L52.2812 33.9141L46.9766 33.0312L46.0938 27.7266L51.9062 21.9141C52.4219 21.3984 52.1719 20.5156 51.4609 20.3359C47.7578 19.4219 43.6797 20.4063 40.7891 23.2969C38.5625 25.5234 37.5156 28.4609 37.5703 31.3906L43.9844 37.8047C44.6172 37.6562 45.2734 37.5781 45.9141 37.5781ZM37.7969 43.9844L33.3672 39.5547L21.4609 51.4688C19.5078 53.4219 19.5078 56.5859 21.4609 58.5391C23.4141 60.4922 26.5781 60.4922 28.5312 58.5391L38.1875 48.8828C37.5938 47.3281 37.4141 45.6328 37.7969 43.9844ZM25 56.875C23.9688 56.875 23.125 56.0312 23.125 55C23.125 53.9609 23.9609 53.125 25 53.125C26.0391 53.125 26.875 53.9609 26.875 55C26.875 56.0312 26.0391 56.875 25 56.875Z" fill="#699BF7"/>
</g>
<circle opacity="0.1" cx="40" cy="40" r="40" fill="#699BF7"/>
<defs>
<clipPath id="clip0_2_2068">
<rect width="40" height="40" fill="white" transform="translate(20 20)"/>
</clipPath>
</defs>
</svg>
