<svg width="30" height="30" viewBox="0 0 30 30" fill="none" xmlns="http://www.w3.org/2000/svg">
<g clip-path="url(#clip0_150_402)">
<path d="M26.7188 3.93755C26.3964 3.72901 26.0278 3.60285 25.6453 3.57016C25.2627 3.53747 24.8781 3.59924 24.525 3.75005L12.9562 8.3063C12.6824 8.41777 12.3895 8.47507 12.0938 8.47505H4.6875C4.0659 8.47505 3.46976 8.72198 3.03022 9.16152C2.59068 9.60105 2.34375 10.1972 2.34375 10.8188V11.0063H0V16.6313H2.34375V16.875C2.35844 17.4868 2.61184 18.0686 3.04979 18.4961C3.48775 18.9235 4.07552 19.1627 4.6875 19.1625L7.5 25.125C7.69044 25.5266 7.99027 25.8662 8.36505 26.105C8.73983 26.3438 9.17437 26.4721 9.61875 26.475H10.8C11.4183 26.4701 12.0097 26.221 12.4452 25.782C12.8807 25.343 13.125 24.7497 13.125 24.1313V19.3875L24.525 23.9438C24.8054 24.0554 25.1045 24.1126 25.4062 24.1125C25.8745 24.105 26.3304 23.9617 26.7188 23.7C27.0271 23.4918 27.2815 23.2132 27.4609 22.8871C27.6402 22.5611 27.7393 22.197 27.75 21.825V5.8688C27.7483 5.48726 27.6534 5.11192 27.4737 4.77536C27.294 4.4388 27.0349 4.1512 26.7188 3.93755ZM10.7812 10.8188V16.875H4.6875V10.8188H10.7812ZM10.7812 24.1313H9.6L7.29375 19.1625H10.7812V24.1313ZM13.8187 17.1563C13.5961 17.0425 13.364 16.9484 13.125 16.875V10.6875C13.3617 10.6387 13.5938 10.5697 13.8187 10.4813L25.4062 5.8688V21.7688L13.8187 17.1563ZM27.8062 11.475V16.1625C28.4279 16.1625 29.024 15.9156 29.4635 15.4761C29.9031 15.0365 30.15 14.4404 30.15 13.8188C30.15 13.1972 29.9031 12.6011 29.4635 12.1615C29.024 11.722 28.4279 11.475 27.8062 11.475Z" fill="url(#paint0_linear_150_402)"/>
</g>
<defs>
<linearGradient id="paint0_linear_150_402" x1="1.7847" y1="24.4252" x2="22.7206" y2="-1.23591" gradientUnits="userSpaceOnUse">
<stop stop-color="#438181"/>
<stop offset="1" stop-color="#326060"/>
</linearGradient>
<clipPath id="clip0_150_402">
<rect width="30" height="30" fill="white"/>
</clipPath>
</defs>
</svg>
