<svg width="80" height="80" viewBox="0 0 80 80" fill="none" xmlns="http://www.w3.org/2000/svg">
<path d="M59.3409 32.2412L46.9434 30.4395L41.4014 19.2041C41.25 18.8965 41.001 18.6475 40.6934 18.4961C39.9219 18.1153 38.9844 18.4326 38.5987 19.2041L33.0567 30.4395L20.6592 32.2412C20.3174 32.2901 20.0049 32.4512 19.7657 32.6953C19.4764 32.9926 19.317 33.3926 19.3225 33.8074C19.328 34.2221 19.4979 34.6177 19.795 34.9072L28.7647 43.6524L26.6456 56.001C26.5959 56.2882 26.6276 56.5837 26.7373 56.8538C26.847 57.1239 27.0301 57.3579 27.266 57.5292C27.5019 57.7005 27.781 57.8023 28.0718 57.823C28.3626 57.8438 28.6534 57.7826 28.9112 57.6465L40 51.8164L51.0889 57.6465C51.3916 57.8076 51.7432 57.8613 52.0801 57.8028C52.9297 57.6563 53.501 56.8506 53.3545 56.001L51.2354 43.6524L60.2051 34.9072C60.4493 34.668 60.6104 34.3555 60.6592 34.0137C60.7911 33.1592 60.1954 32.3682 59.3409 32.2412Z" fill="#FFC700"/>
<circle opacity="0.1" cx="40" cy="40" r="40" fill="#FFC700"/>
</svg>
