<svg width="80" height="80" viewBox="0 0 80 80" fill="none" xmlns="http://www.w3.org/2000/svg">
<path d="M39.9792 19.1666C28.4792 19.1666 19.1667 28.5 19.1667 40C19.1667 51.5 28.4792 60.8333 39.9792 60.8333C51.5 60.8333 60.8334 51.5 60.8334 40C60.8334 28.5 51.5 19.1666 39.9792 19.1666ZM40 56.6666C30.7917 56.6666 23.3334 49.2083 23.3334 40C23.3334 30.7916 30.7917 23.3333 40 23.3333C49.2084 23.3333 56.6667 30.7916 56.6667 40C56.6667 49.2083 49.2084 56.6666 40 56.6666ZM39.5417 29.5833H39.4167C38.5834 29.5833 37.9167 30.25 37.9167 31.0833V40.9166C37.9167 41.6458 38.2917 42.3333 38.9375 42.7083L47.5834 47.8958C48.2917 48.3125 49.2084 48.1041 49.625 47.3958C49.7296 47.2271 49.7992 47.0391 49.8296 46.8429C49.8601 46.6468 49.8507 46.4465 49.8021 46.2541C49.7535 46.0616 49.6667 45.8809 49.5468 45.7227C49.4269 45.5645 49.2763 45.4321 49.1042 45.3333L41.0417 40.5416V31.0833C41.0417 30.25 40.375 29.5833 39.5417 29.5833Z" fill="#0FA958"/>
<circle opacity="0.1" cx="40" cy="40" r="40" fill="#0FA958"/>
</svg>
